<?xml version="1.0" encoding="utf-8"?>
<svg xmlns="http://www.w3.org/2000/svg" style="margin: auto; background: rgb(15, 15, 15); display: block; shape-rendering: auto;" width="280" height="250" preserveAspectRatio="xMidYMid">
<style type="text/css">
  text {
    text-anchor: middle; font-size: 80px; opacity: 0;
  }
</style>
<g style="transform-origin:140px 125px;transform:scale(1)">
<g transform="translate(140,125)">
  <g transform="translate(0,0)"><g class="path" style="transform: scale(0.91); transform-origin: -30.98px 10.8433px; animation: 1s linear -0.44s infinite normal forwards running breath-4b300d76-bee1-485c-9bd8-485286c4679e;"><path d="M6.95 4.77L6.95 4.77L6.88-3.16L6.88-49.02L6.88-49.02Q6.88-51.41 5.39-52.89L5.39-52.89L6.17-53.67L6.17-53.67Q7.66-52.19 10.04-52.19L10.04-52.19L43.75-52.19L43.75-52.19Q51.84-52.19 54.71-51.72L54.71-51.72L54.71-51.72Q57.58-51.25 59.73-50.68L59.73-50.68L59.73-50.68Q61.88-50.12 63.32-49.34L63.32-49.34L63.32-49.34Q64.77-48.55 66.29-47.34L66.29-47.34L66.29-47.34Q67.81-46.13 68.71-44.61L68.71-44.61L68.71-44.61Q70.78-41.09 70.78-36.74L70.78-36.74L70.78-36.74Q70.78-32.38 69.82-29.32L69.82-29.32L69.82-29.32Q68.87-26.25 66.76-23.83L66.76-23.83L66.76-23.83Q62.38-18.75 51.88-18.75L51.88-18.75L30.35-18.75L30.35-18.75Q27.93-18.75 26.45-20.23L26.45-20.23L25.63-19.49L25.63-19.49Q27.19-17.93 27.19-15.59L27.19-15.59L27.19-3.16L27.19-3.16Q27.19-0.16 27.11 4.22L27.11 4.22L25.35 4.38L25.35 4.38Q24.84 0 24.02 0L24.02 0L10.04 0L10.04 0Q9.57 0 9.28 1.89L9.28 1.89L9.28 1.89Q8.98 3.79 8.98 5.53L8.98 5.53L8.98 5.53Q8.98 7.27 9.73 11.45L9.73 11.45L9.73 11.45Q10.47 15.63 10.47 17.30L10.47 17.30L10.47 17.30Q10.47 20.90 7.85 20.90L7.85 20.90L7.85 20.90Q5.23 20.90 5.23 17.23L5.23 17.23L5.23 17.23Q5.23 15.47 6.09 11.02L6.09 11.02L6.09 11.02Q6.95 6.56 6.95 4.77zM27.19-35.98L27.19-35.98L27.19-33.67L27.19-33.67Q27.19-31.37 25.63-29.80L25.63-29.80L26.45-28.98L26.45-28.98Q27.97-30.51 30.35-30.51L30.35-30.51L43.01-30.51L43.01-30.51Q46.95-30.51 47.73-30.96L47.73-30.96L47.73-30.96Q48.52-31.41 49.06-31.88L49.06-31.88L49.06-31.88Q50-32.73 50-34.34L50-34.34L50-34.34Q50-35.94 49.67-36.70L49.67-36.70L49.67-36.70Q49.34-37.46 48.71-37.89L48.71-37.89L48.71-37.89Q48.09-38.32 47.46-38.59L47.46-38.59L47.46-38.59Q46.84-38.87 45.94-38.98L45.94-38.98L45.94-38.98Q44.69-39.14 43.16-39.14L43.16-39.14L30.35-39.14L30.35-39.14Q27.93-39.14 26.45-40.63L26.45-40.63L25.63-39.88L25.63-39.88Q27.19-38.32 27.19-35.98" fill="#ecbc63" stroke="none" stroke-width="none" transform="translate(-68.98501586914062,27.22826558430989)" style="fill: rgb(236, 188, 99);"></path></g><g class="path" style="transform: scale(0.91); transform-origin: -51.895px 32.7983px; animation: 1s linear -0.22s infinite normal forwards running breath-4b300d76-bee1-485c-9bd8-485286c4679e;"><path d="M17.81 2.66L17.81 2.66L18.83 11.91L18.83 11.91Q18.83 14.30 17.09 14.30L17.09 14.30L17.09 14.30Q15.35 14.30 15.35 11.88L15.35 11.88L15.35 11.88Q15.35 10.47 16.07 6.97L16.07 6.97L16.07 6.97Q16.80 3.48 16.80 2.40L16.80 2.40L16.80 2.40Q16.80 1.33 16.78-0.35L16.78-0.35L16.78-0.35Q16.76-2.03 16.76-3.16L16.76-3.16L18.52-1.09L18.52-1.09Q18.24-1.09 18.03 0.18L18.03 0.18L18.03 0.18Q17.81 1.45 17.81 2.66" fill="#ecbc63" stroke="none" stroke-width="none" transform="translate(-68.98501586914062,27.22826558430989)" style="fill: rgb(227, 195, 125);"></path></g><g class="path" style="transform: scale(0.91); transform-origin: 39.625px 8.98826px; animation: 1s linear 0s infinite normal forwards running breath-4b300d76-bee1-485c-9bd8-485286c4679e;"><path d="M102.38 13.83L102.38 13.83L102.81 6.17L102.81 6.17Q102.81-0.39 101.17-0.39L101.17-0.39L101.17-0.39Q99.53-0.39 99.53 3.75L99.53 3.75L99.53 4.88L99.53 4.88Q99.53 6.56 100.29 9.88L100.29 9.88L100.29 9.88Q101.05 13.20 101.05 14.92L101.05 14.92L101.05 14.92Q101.05 17.58 99.08 17.58L99.08 17.58L99.08 17.58Q97.11 17.58 97.11 14.92L97.11 14.92L97.11 14.92Q97.11 13.13 97.93 9.69L97.93 9.69L97.93 9.69Q98.75 6.25 98.75 4.45L98.75 4.45L98.67-11.48L98.67-11.48Q98.67-12.70 99.00-13.36L99.00-13.36L99.00-13.36Q99.34-14.02 100.39-14.34L100.39-14.34L100-15.82L100-15.82Q99.45-15.66 99.04-15.66L99.04-15.66L99.04-15.66Q98.63-15.66 98.20-15.94L98.20-15.94L98.20-15.94Q97.70-16.29 97.03-17.34L97.03-17.34L77.23-49.61L77.23-49.61Q76.05-51.52 74.02-52.73L74.02-52.73L74.38-53.40L74.38-53.40Q76.33-52.30 78.79-52.30L78.79-52.30L94.53-52.38L94.53-52.38Q96.88-52.38 97.85-54.06L97.85-54.06L99.06-53.40L99.06-53.40Q98.55-52.46 98.55-51.35L98.55-51.35L98.55-51.35Q98.55-50.23 100.14-47.54L100.14-47.54L100.14-47.54Q101.72-44.84 103.61-42.30L103.61-42.30L103.61-42.30Q105.51-39.77 107.09-36.68L107.09-36.68L107.09-36.68Q108.67-33.59 108.67-31.33L108.67-31.33L109.49-31.33L109.49-31.64L109.49-31.64Q109.49-35.31 114.57-42.34L114.57-42.34L114.57-42.34Q119.65-49.38 119.65-51.76L119.65-51.76L119.65-51.76Q119.65-52.38 119.10-53.40L119.10-53.40L120.31-54.06L120.31-54.06Q121.29-52.38 123.67-52.38L123.67-52.38L138.48-52.30L138.48-52.30Q140.90-52.30 142.85-53.40L142.85-53.40L143.20-52.73L143.20-52.73Q141.09-51.48 139.96-49.61L139.96-49.61L119.96-17.34L119.96-17.34Q118.95-15.66 117.89-15.66L117.89-15.66L117.89-15.66Q117.46-15.66 116.99-15.82L116.99-15.82L116.52-14.38L116.52-14.38Q118.40-13.79 118.40-10.47L118.40-10.47L118.16-5.04L118.16-5.04Q118.16-1.29 119.80 0.35L119.80 0.35L118.98 1.13L118.98 1.13Q117.46-0.39 115.12-0.39L115.12-0.39L105.98-0.39L105.98-0.39Q103.48-0.39 103.48 6.68L103.48 6.68L104.06 13.95L104.06 13.95Q104.06 15.31 103.22 15.31L103.22 15.31L103.22 15.31Q102.38 15.31 102.38 13.83" fill="#ecbc63" stroke="none" stroke-width="none" transform="translate(-68.98501586914062,27.22826558430989)" style="fill: rgb(255, 255, 255);"></path></g></g>
</g>
</g>
<style id="breath-4b300d76-bee1-485c-9bd8-485286c4679e" data-anikit="">@keyframes breath-4b300d76-bee1-485c-9bd8-485286c4679e
{
  0% {
    animation-timing-function: cubic-bezier(0.9647,0.2413,-0.0705,0.7911);
    transform: scale(0.9099999999999999);
  }
  51% {
    animation-timing-function: cubic-bezier(0.9226,0.2631,-0.0308,0.7628);
    transform: scale(1.02994);
  }
  100% {
    transform: scale(0.9099999999999999);
  }
}</style></svg>